<mxfile host="app.diagrams.net" modified="2023-08-17T13:09:29.835Z" agent="Mozilla/5.0 (Windows NT 10.0; Win64; x64) AppleWebKit/537.36 (KHTML, like Gecko) Chrome/115.0.0.0 Safari/537.36 Edg/115.0.1901.203" etag="Y87mBsQd9KEFfWtY04sO" version="21.6.8" type="device">
  <diagram name="Seite-1" id="fbcyYb8wYIPdNFDIO3jn">
    <mxGraphModel dx="1379" dy="908" grid="1" gridSize="10" guides="1" tooltips="1" connect="1" arrows="1" fold="1" page="1" pageScale="1" pageWidth="827" pageHeight="1169" math="0" shadow="0">
      <root>
        <mxCell id="0" />
        <mxCell id="1" parent="0" />
        <mxCell id="uEmpHQ93MT59HrvHP_3x-20" style="edgeStyle=orthogonalEdgeStyle;rounded=0;orthogonalLoop=1;jettySize=auto;html=1;" edge="1" parent="1" source="uEmpHQ93MT59HrvHP_3x-2" target="uEmpHQ93MT59HrvHP_3x-18">
          <mxGeometry relative="1" as="geometry" />
        </mxCell>
        <mxCell id="uEmpHQ93MT59HrvHP_3x-2" value="DataAccess" style="verticalLabelPosition=middle;verticalAlign=bottom;html=1;shape=mxgraph.basic.half_circle;fillColor=#dae8fc;strokeColor=#6c8ebf;labelPosition=center;align=center;spacingBottom=0;spacing=5;" vertex="1" parent="1">
          <mxGeometry x="270" y="120" width="200" height="100" as="geometry" />
        </mxCell>
        <mxCell id="uEmpHQ93MT59HrvHP_3x-3" value="" style="verticalLabelPosition=middle;verticalAlign=bottom;shape=mxgraph.basic.half_circle;fillColor=#66FF66;strokeColor=#6c8ebf;labelPosition=center;align=center;rotation=-180;" vertex="1" parent="1">
          <mxGeometry x="270" y="20" width="200" height="100" as="geometry" />
        </mxCell>
        <mxCell id="uEmpHQ93MT59HrvHP_3x-4" value="UseCase" style="ellipse;whiteSpace=wrap;html=1;aspect=fixed;fillColor=#FFCCCC;" vertex="1" parent="1">
          <mxGeometry x="322.5" y="70" width="95" height="95" as="geometry" />
        </mxCell>
        <mxCell id="uEmpHQ93MT59HrvHP_3x-5" value="Presentation" style="text;html=1;strokeColor=none;fillColor=none;align=center;verticalAlign=middle;whiteSpace=wrap;rounded=0;" vertex="1" parent="1">
          <mxGeometry x="340" y="20" width="60" height="30" as="geometry" />
        </mxCell>
        <mxCell id="uEmpHQ93MT59HrvHP_3x-9" style="edgeStyle=orthogonalEdgeStyle;rounded=0;orthogonalLoop=1;jettySize=auto;html=1;" edge="1" parent="1" source="uEmpHQ93MT59HrvHP_3x-6" target="uEmpHQ93MT59HrvHP_3x-7">
          <mxGeometry relative="1" as="geometry" />
        </mxCell>
        <mxCell id="uEmpHQ93MT59HrvHP_3x-6" value="PresentationLayer" style="rounded=1;whiteSpace=wrap;html=1;fillColor=#66FF66;" vertex="1" parent="1">
          <mxGeometry x="30" y="20" width="120" height="40" as="geometry" />
        </mxCell>
        <mxCell id="uEmpHQ93MT59HrvHP_3x-10" style="edgeStyle=orthogonalEdgeStyle;rounded=0;orthogonalLoop=1;jettySize=auto;html=1;" edge="1" parent="1" source="uEmpHQ93MT59HrvHP_3x-7" target="uEmpHQ93MT59HrvHP_3x-8">
          <mxGeometry relative="1" as="geometry" />
        </mxCell>
        <mxCell id="uEmpHQ93MT59HrvHP_3x-7" value="BusinessLogicLayer" style="rounded=1;whiteSpace=wrap;html=1;fillColor=#FFCCCC;" vertex="1" parent="1">
          <mxGeometry x="30" y="97.5" width="120" height="40" as="geometry" />
        </mxCell>
        <mxCell id="uEmpHQ93MT59HrvHP_3x-17" style="edgeStyle=orthogonalEdgeStyle;rounded=0;orthogonalLoop=1;jettySize=auto;html=1;" edge="1" parent="1" source="uEmpHQ93MT59HrvHP_3x-8" target="uEmpHQ93MT59HrvHP_3x-16">
          <mxGeometry relative="1" as="geometry" />
        </mxCell>
        <mxCell id="uEmpHQ93MT59HrvHP_3x-8" value="DataAccessLayer" style="rounded=1;whiteSpace=wrap;html=1;fillColor=#DAE8FC;" vertex="1" parent="1">
          <mxGeometry x="30" y="180" width="120" height="40" as="geometry" />
        </mxCell>
        <mxCell id="uEmpHQ93MT59HrvHP_3x-13" value="" style="endArrow=classic;html=1;rounded=0;" edge="1" parent="1">
          <mxGeometry width="50" height="50" relative="1" as="geometry">
            <mxPoint x="369.76" y="57.5" as="sourcePoint" />
            <mxPoint x="369.76" y="97.5" as="targetPoint" />
          </mxGeometry>
        </mxCell>
        <mxCell id="uEmpHQ93MT59HrvHP_3x-14" value="" style="endArrow=classic;html=1;rounded=0;" edge="1" parent="1">
          <mxGeometry width="50" height="50" relative="1" as="geometry">
            <mxPoint x="369.76" y="177.5" as="sourcePoint" />
            <mxPoint x="369.76" y="137.5" as="targetPoint" />
          </mxGeometry>
        </mxCell>
        <mxCell id="uEmpHQ93MT59HrvHP_3x-15" value="" style="shape=flexArrow;endArrow=classic;html=1;rounded=0;" edge="1" parent="1">
          <mxGeometry width="50" height="50" relative="1" as="geometry">
            <mxPoint x="170" y="117.25999999999999" as="sourcePoint" />
            <mxPoint x="250" y="117.25999999999999" as="targetPoint" />
          </mxGeometry>
        </mxCell>
        <mxCell id="uEmpHQ93MT59HrvHP_3x-16" value="Database" style="shape=cylinder3;whiteSpace=wrap;html=1;boundedLbl=1;backgroundOutline=1;size=15;" vertex="1" parent="1">
          <mxGeometry x="60" y="242" width="60" height="58" as="geometry" />
        </mxCell>
        <mxCell id="uEmpHQ93MT59HrvHP_3x-18" value="Database" style="shape=cylinder3;whiteSpace=wrap;html=1;boundedLbl=1;backgroundOutline=1;size=15;" vertex="1" parent="1">
          <mxGeometry x="340" y="242" width="60" height="58" as="geometry" />
        </mxCell>
      </root>
    </mxGraphModel>
  </diagram>
</mxfile>
